<svg width="206" height="81" viewBox="0 0 206 81" fill="none" xmlns="http://www.w3.org/2000/svg">
<rect y="38" width="206" height="4" rx="2" fill="#454545"/>
<rect x="53.2715" y="79.9984" width="15" height="80" rx="3" transform="rotate(179.633 53.2715 79.9984)" fill="#7B7B7B"/>
<rect x="37.3843" y="69.9988" width="15" height="60" rx="3" transform="rotate(179.633 37.3843 69.9988)" fill="#7B7B7B"/>
<rect x="21.144" y="60.2038" width="15" height="40" rx="3" transform="rotate(179.633 21.144 60.2038)" fill="#7B7B7B"/>
<rect x="153" y="0.00088501" width="15" height="80" rx="3" fill="#7B7B7B"/>
<rect x="169" y="9.00089" width="15" height="60" rx="3" fill="#7B7B7B"/>
<rect x="185" y="19.0009" width="15" height="40" rx="3" fill="#7B7B7B"/>
<path d="M54.7021 14.7852C55.874 14.8828 56.8994 14.9414 57.7783 14.9609C58.6768 14.9805 59.4385 14.9902 60.0635 14.9902C60.7861 14.9902 61.4111 14.9707 61.9385 14.9316C62.4854 14.873 63.1982 14.7949 64.0771 14.6973C64.8193 14.5996 65.7764 14.4727 66.9482 14.3164C68.1201 14.1406 69.5459 13.916 71.2256 13.6426C71.0107 13.9746 70.8252 14.3262 70.6689 14.6973C70.5322 15.0488 70.415 15.3711 70.3174 15.6641C70.2197 16.0156 70.1318 16.3574 70.0537 16.6895C69.9951 17.0605 69.9268 17.5195 69.8486 18.0664C69.7705 18.5352 69.6729 19.1309 69.5557 19.8535C69.458 20.5566 69.3311 21.3965 69.1748 22.373C68.5889 20.8496 67.9932 19.6777 67.3877 18.8574C66.8018 18.0371 66.2549 17.4316 65.7471 17.041C65.1611 16.5918 64.6045 16.3379 64.0771 16.2793C63.3154 16.2793 62.6904 16.4258 62.2021 16.7188C61.7139 17.0117 61.3135 17.3926 61.001 17.8613C60.708 18.3105 60.4834 18.8086 60.3271 19.3555C60.1709 19.8828 60.0635 20.4004 60.0049 20.9082C59.9463 21.3965 59.9072 21.8359 59.8877 22.2266C59.8682 22.5977 59.8486 22.8516 59.8291 22.9883C60.5127 22.9492 61.0889 22.9004 61.5576 22.8418C62.0264 22.7832 62.3975 22.7246 62.6709 22.666C63.0029 22.5879 63.2666 22.5098 63.4619 22.4316C63.7549 22.2754 64.0479 22.0898 64.3408 21.875C64.5947 21.6797 64.8584 21.4453 65.1318 21.1719C65.4248 20.8984 65.6787 20.5664 65.8936 20.1758C65.7764 20.8789 65.6689 21.4648 65.5713 21.9336C65.4932 22.4023 65.4248 22.7734 65.3662 23.0469C65.2881 23.3789 65.2393 23.6328 65.2197 23.8086C65.1807 23.9844 65.1318 24.2285 65.0732 24.541C65.0146 24.8145 64.9463 25.166 64.8682 25.5957C64.79 26.0254 64.7021 26.5625 64.6045 27.207C64.3701 26.7969 64.126 26.4648 63.8721 26.2109C63.6182 25.9375 63.3838 25.7227 63.1689 25.5664C62.915 25.3906 62.6709 25.2539 62.4365 25.1562C62.1826 25.0781 61.9092 25 61.6162 24.9219C61.3623 24.8633 61.0596 24.8047 60.708 24.7461C60.376 24.668 60.0146 24.5996 59.624 24.541C59.6631 25.5957 59.7217 26.5039 59.7998 27.2656C59.8779 28.0078 59.9463 28.6328 60.0049 29.1406C60.083 29.7266 60.1611 30.2148 60.2393 30.6055C60.3369 30.9961 60.4932 31.416 60.708 31.8652C60.8838 32.2559 61.1279 32.7051 61.4404 33.2129C61.7725 33.7012 62.1924 34.2285 62.7002 34.7949C62.3096 34.6973 61.8994 34.6289 61.4697 34.5898C61.04 34.5508 60.6592 34.5215 60.3271 34.502C59.917 34.4824 59.5264 34.4824 59.1553 34.502C58.7646 34.5215 58.335 34.5605 57.8662 34.6191C57.4756 34.6582 57.0264 34.7168 56.5186 34.7949C56.0107 34.873 55.4736 34.9609 54.9072 35.0586C55.2393 34.7266 55.5127 34.3945 55.7275 34.0625C55.9424 33.7305 56.0986 33.4375 56.1963 33.1836C56.3135 32.8906 56.3916 32.6074 56.4307 32.334C56.4502 32.0996 56.46 31.5918 56.46 30.8105C56.46 30.0098 56.4502 29.082 56.4307 28.0273C56.4111 26.9531 56.3818 25.8203 56.3428 24.6289C56.3037 23.4375 56.2646 22.3242 56.2256 21.2891C56.1865 20.2344 56.1377 19.3359 56.0791 18.5938C56.04 17.8516 55.9912 17.4023 55.9326 17.2461C55.8545 17.0508 55.7666 16.8262 55.6689 16.5723C55.5127 16.1621 55.1904 15.5664 54.7021 14.7852ZM69.8779 14.8145C70.542 14.8926 71.0986 14.9512 71.5479 14.9902C72.0166 15.0098 72.3975 15.0391 72.6904 15.0781C73.042 15.1172 73.3154 15.1367 73.5107 15.1367C73.7256 15.1562 74.0479 15.1465 74.4775 15.1074C74.8486 15.0684 75.3467 15.0195 75.9717 14.9609C76.6162 14.9023 77.4365 14.8145 78.4326 14.6973C77.9834 15.0879 77.6221 15.4688 77.3486 15.8398C77.0947 16.1914 76.8994 16.5039 76.7627 16.7773C76.5869 17.1094 76.4795 17.4219 76.4404 17.7148C76.3623 18.1836 76.2939 18.8281 76.2354 19.6484C76.1963 20.4492 76.1572 21.3281 76.1182 22.2852C76.0791 23.2422 76.0596 24.2285 76.0596 25.2441C76.0596 26.2598 76.0693 27.2266 76.0889 28.1445C76.1279 29.043 76.1865 29.8438 76.2646 30.5469C76.3623 31.25 76.4795 31.7578 76.6162 32.0703C76.8115 32.4219 77.0166 32.7734 77.2314 33.125C77.4268 33.418 77.6611 33.7207 77.9346 34.0332C78.208 34.3457 78.5205 34.5996 78.8721 34.7949C77.7197 34.7363 76.8018 34.707 76.1182 34.707H75.0635C74.751 34.707 74.3506 34.7266 73.8623 34.7656C73.4521 34.8047 72.9346 34.8438 72.3096 34.8828C71.6846 34.9219 70.9326 34.9805 70.0537 35.0586C70.5029 34.5703 70.8545 34.1016 71.1084 33.6523C71.3623 33.2031 71.5674 32.8125 71.7236 32.4805C71.8994 32.0898 72.0166 31.7188 72.0752 31.3672C72.1533 30.8594 72.2119 30.2344 72.251 29.4922C72.3096 28.7305 72.3486 27.9199 72.3682 27.0605C72.3877 26.1816 72.3877 25.293 72.3682 24.3945C72.3682 23.4766 72.3486 22.5977 72.3096 21.7578C72.2705 20.918 72.2119 20.1562 72.1338 19.4727C72.0752 18.7891 71.9971 18.2422 71.8994 17.832C71.8408 17.5781 71.7236 17.2949 71.5479 16.9824C71.3916 16.709 71.1768 16.3965 70.9033 16.0449C70.6494 15.6738 70.3076 15.2637 69.8779 14.8145ZM78.4326 13.6133C79.7412 13.7695 80.874 13.8867 81.8311 13.9648C82.7881 14.0234 83.5791 14.0723 84.2041 14.1113C84.9268 14.1504 85.5322 14.1602 86.0205 14.1406C86.5283 14.1211 87.2217 14.0723 88.1006 13.9941C88.8428 13.9355 89.8193 13.8574 91.0303 13.7598C92.2412 13.6426 93.7549 13.4863 95.5713 13.291C95.5908 13.7402 95.6006 14.1797 95.6006 14.6094C95.6201 15.0195 95.6396 15.3809 95.6592 15.6934C95.6787 16.0645 95.6885 16.4062 95.6885 16.7188C95.6885 17.0508 95.6689 17.4707 95.6299 17.9785C95.5908 18.4082 95.5225 18.9551 95.4248 19.6191C95.3467 20.2637 95.2197 21.0352 95.0439 21.9336C94.7705 20.8789 94.5068 20.0293 94.2529 19.3848C93.999 18.7207 93.7646 18.1934 93.5498 17.8027C93.3154 17.3535 93.0811 17.0117 92.8467 16.7773C92.5928 16.6016 92.29 16.4551 91.9385 16.3379C91.626 16.2402 91.2256 16.1621 90.7373 16.1035C90.2686 16.0449 89.7119 16.0547 89.0674 16.1328C88.9697 18.7109 88.9014 20.8008 88.8623 22.4023C88.8232 24.0039 88.7939 25.2539 88.7744 26.1523C88.7549 27.2266 88.7451 27.998 88.7451 28.4668C88.7646 29.1309 88.8721 29.7852 89.0674 30.4297C89.2236 30.9766 89.4775 31.543 89.8291 32.1289C90.1807 32.7148 90.6885 33.2324 91.3525 33.6816H87.7783C87.4463 33.6816 87.0361 33.7012 86.5479 33.7402C86.1377 33.7793 85.6104 33.8184 84.9658 33.8574C84.3408 33.8965 83.6084 33.9648 82.7686 34.0625C83.0615 33.5547 83.2959 33.0957 83.4717 32.6855C83.6475 32.2754 83.7842 31.9238 83.8818 31.6309C83.999 31.2793 84.0869 30.9668 84.1455 30.6934C84.165 30.3027 84.2139 29.5117 84.292 28.3203C84.3115 27.832 84.3311 27.2266 84.3506 26.5039C84.3896 25.7812 84.4287 24.9219 84.4678 23.9258C84.5264 22.9297 84.5752 21.7871 84.6143 20.498C84.6729 19.1895 84.7314 17.7148 84.79 16.0742C84.4385 15.9766 84.1064 15.9863 83.7939 16.1035C83.4814 16.2012 83.208 16.3281 82.9736 16.4844C82.7002 16.6797 82.4365 16.9141 82.1826 17.1875C81.9287 17.5195 81.6455 17.9492 81.333 18.4766C81.0596 18.9258 80.7471 19.5215 80.3955 20.2637C80.0439 20.9863 79.6436 21.8848 79.1943 22.959C79.0967 21.8262 79.0283 20.8984 78.9893 20.1758C78.9502 19.4336 78.9209 18.8574 78.9014 18.4473C78.8818 17.959 78.8721 17.5977 78.8721 17.3633C78.8721 17.1484 78.8525 16.8652 78.8135 16.5137C78.7744 16.2207 78.7256 15.8398 78.667 15.3711C78.6084 14.8828 78.5303 14.2969 78.4326 13.6133ZM94.6631 14.2285C95.542 14.3848 96.2646 14.4922 96.8311 14.5508C97.3975 14.6094 97.8564 14.6582 98.208 14.6973C98.6182 14.7363 98.9404 14.7461 99.1748 14.7266H100.054C100.366 14.7266 100.757 14.7266 101.226 14.7266C101.714 14.707 102.319 14.6973 103.042 14.6973C103.452 15.6543 103.823 16.5332 104.155 17.334C104.507 18.1348 104.8 18.8184 105.034 19.3848C105.308 20.0684 105.562 20.6836 105.796 21.2305C106.069 21.9141 106.362 22.666 106.675 23.4863C106.987 24.3066 107.271 25.0781 107.524 25.8008C107.798 26.5234 108.022 27.1191 108.198 27.5879C108.374 28.0566 108.462 28.2715 108.462 28.2324C108.462 28.2129 108.472 28.0176 108.491 27.6465C108.511 27.2559 108.53 26.7773 108.55 26.2109C108.569 25.625 108.589 24.9902 108.608 24.3066C108.647 23.6035 108.667 22.9297 108.667 22.2852C108.687 21.6211 108.696 21.0156 108.696 20.4688C108.696 19.9219 108.677 19.5117 108.638 19.2383C108.579 18.9062 108.462 18.5254 108.286 18.0957C108.13 17.7246 107.915 17.2852 107.642 16.7773C107.368 16.25 106.987 15.6543 106.499 14.9902C107.3 15.0098 107.954 15.0195 108.462 15.0195C108.97 15.0195 109.38 15.0195 109.692 15.0195C110.044 15.0195 110.317 15.0098 110.513 14.9902C110.767 14.9902 111.079 14.9707 111.45 14.9316C111.782 14.8926 112.192 14.8633 112.681 14.8438C113.188 14.8047 113.813 14.7559 114.556 14.6973C114.126 15.0879 113.784 15.459 113.53 15.8105C113.276 16.1621 113.071 16.4746 112.915 16.748C112.739 17.0605 112.622 17.3535 112.563 17.627C112.485 17.9785 112.417 18.5547 112.358 19.3555C112.319 20.1367 112.271 21.0156 112.212 21.9922C112.173 22.9688 112.134 23.9844 112.095 25.0391C112.056 26.0938 112.017 27.0605 111.978 27.9395C111.978 28.6035 111.958 29.3164 111.919 30.0781C111.88 30.7227 111.841 31.4551 111.802 32.2754C111.763 33.0762 111.714 33.8867 111.655 34.707L109.048 34.7656C108.286 33.418 107.642 32.2656 107.114 31.3086C106.606 30.332 106.187 29.5312 105.854 28.9062C105.483 28.1836 105.171 27.5781 104.917 27.0898C104.702 26.6211 104.419 26.084 104.067 25.4785C103.774 24.9707 103.403 24.3457 102.954 23.6035C102.524 22.8613 102.007 22.0117 101.401 21.0547C101.343 22.4023 101.313 23.5547 101.313 24.5117C101.333 25.4492 101.362 26.2305 101.401 26.8555C101.46 27.5781 101.528 28.1836 101.606 28.6719C101.704 29.1406 101.841 29.668 102.017 30.2539C102.173 30.7617 102.358 31.3574 102.573 32.041C102.808 32.7246 103.091 33.4961 103.423 34.3555C102.271 34.2969 101.411 34.2676 100.845 34.2676H99.9658C99.6924 34.2676 99.3213 34.2969 98.8525 34.3555C98.4619 34.3945 97.9248 34.4531 97.2412 34.5312C96.5771 34.6094 95.7471 34.7168 94.751 34.8535C95.2197 34.2871 95.5908 33.7695 95.8643 33.3008C96.1572 32.8125 96.3818 32.4023 96.5381 32.0703C96.7334 31.6797 96.8701 31.3379 96.9482 31.0449C97.0068 30.7324 97.0459 30.1953 97.0654 29.4336C97.085 28.6523 97.085 27.7734 97.0654 26.7969C97.0654 25.8008 97.0459 24.7559 97.0068 23.6621C96.9873 22.5684 96.958 21.5527 96.9189 20.6152C96.8799 19.6777 96.8311 18.877 96.7725 18.2129C96.7334 17.5488 96.7041 17.1387 96.6846 16.9824C96.626 16.7285 96.5088 16.4551 96.333 16.1621C96.1768 15.9082 95.9717 15.625 95.7178 15.3125C95.4639 14.9805 95.1123 14.6191 94.6631 14.2285ZM112.915 14.9902C114.282 15.0293 115.415 15.0586 116.313 15.0781C117.231 15.0781 117.974 15.0781 118.54 15.0781H120.093H128.823C128.862 15.4688 128.892 15.8496 128.911 16.2207C128.95 16.5723 128.97 16.8848 128.97 17.1582C128.97 17.4902 128.96 17.793 128.94 18.0664C128.921 18.3398 128.892 18.6328 128.853 18.9453C128.813 19.2188 128.774 19.5117 128.735 19.8242C128.696 20.1367 128.628 20.459 128.53 20.791C128.257 19.7363 127.886 18.9355 127.417 18.3887C126.968 17.8418 126.509 17.4414 126.04 17.1875C125.493 16.8945 124.917 16.7383 124.312 16.7188C123.511 16.7578 122.886 16.8262 122.437 16.9238C121.987 17.0215 121.636 17.1582 121.382 17.334C121.128 17.5098 120.933 17.7148 120.796 17.9492C120.679 18.1641 120.552 18.4082 120.415 18.6816C120.298 18.916 120.19 19.2773 120.093 19.7656C119.995 20.1758 119.897 20.7324 119.8 21.4355C119.722 22.1387 119.634 23.0469 119.536 24.1602C120.063 24.0039 120.483 23.8574 120.796 23.7207C121.128 23.584 121.392 23.4668 121.587 23.3691C121.802 23.252 121.958 23.1445 122.056 23.0469C122.134 22.9297 122.251 22.7148 122.407 22.4023C122.524 22.1289 122.681 21.7578 122.876 21.2891C123.091 20.8203 123.345 20.1758 123.638 19.3555C123.677 20.2539 123.696 21.0059 123.696 21.6113C123.696 22.1973 123.706 22.6758 123.726 23.0469C123.726 23.4766 123.735 23.8184 123.755 24.0723V25.1855C123.755 25.5957 123.755 26.1523 123.755 26.8555C123.774 27.5391 123.804 28.4082 123.843 29.4629C123.608 28.7402 123.394 28.1738 123.198 27.7637C123.022 27.334 122.866 27.0117 122.729 26.7969C122.573 26.543 122.437 26.3672 122.319 26.2695C122.183 26.2305 121.997 26.1914 121.763 26.1523C121.548 26.1328 121.274 26.123 120.942 26.123C120.63 26.123 120.229 26.1719 119.741 26.2695C119.683 27.3438 119.673 28.2129 119.712 28.877C119.771 29.5215 119.849 30.0195 119.946 30.3711C120.044 30.7812 120.161 31.0742 120.298 31.25C120.474 31.4258 120.825 31.5723 121.353 31.6895C121.88 31.7871 122.476 31.8262 123.14 31.8066C123.823 31.7676 124.517 31.6504 125.22 31.4551C125.923 31.2598 126.548 30.9375 127.095 30.4883C127.505 30.1172 127.944 29.6484 128.413 29.082C128.804 28.5938 129.233 27.9785 129.702 27.2363C130.19 26.4941 130.669 25.5957 131.138 24.541C131.06 25.4199 131.001 26.1523 130.962 26.7383C130.942 27.3047 130.913 27.7637 130.874 28.1152C130.835 28.5254 130.806 28.8379 130.786 29.0527C130.786 29.2871 130.757 29.6191 130.698 30.0488C130.659 30.4199 130.591 30.9277 130.493 31.5723C130.415 32.1973 130.308 32.998 130.171 33.9746C129.253 33.9941 128.384 34.0137 127.563 34.0332C126.743 34.0332 126.021 34.043 125.396 34.0625C124.653 34.082 123.97 34.1016 123.345 34.1211C122.7 34.1211 121.987 34.1504 121.206 34.209C120.522 34.248 119.712 34.3066 118.774 34.3848C117.856 34.4629 116.841 34.5703 115.728 34.707C115.825 33.3789 115.894 32.1289 115.933 30.957C115.991 29.7656 116.03 28.7207 116.05 27.8223C116.069 26.7676 116.069 25.791 116.05 24.8926C116.147 22.6465 116.108 20.8301 115.933 19.4434C115.757 18.0566 115.552 17.168 115.317 16.7773C115.2 16.6406 115.034 16.4746 114.819 16.2793C114.644 16.123 114.399 15.9375 114.087 15.7227C113.774 15.5078 113.384 15.2637 112.915 14.9902ZM151.03 13.5547C150.757 14.1797 150.513 14.7266 150.298 15.1953C150.083 15.6641 149.897 16.0645 149.741 16.3965C149.565 16.7676 149.419 17.0996 149.302 17.3926C149.204 17.6074 149.077 17.9004 148.921 18.2715C148.765 18.6035 148.569 19.043 148.335 19.5898C148.12 20.1172 147.837 20.8008 147.485 21.6406C147.31 20.918 147.095 20.2832 146.841 19.7363C146.587 19.1895 146.313 18.7109 146.021 18.3008C145.728 17.8906 145.415 17.5586 145.083 17.3047C144.771 17.0312 144.458 16.8066 144.146 16.6309C143.423 16.2402 142.661 16.0254 141.86 15.9863C140.806 16.0449 139.976 16.2207 139.37 16.5137C138.784 16.7871 138.354 17.1094 138.081 17.4805C137.808 17.832 137.661 18.2031 137.642 18.5938C137.622 18.9648 137.671 19.2773 137.788 19.5312C137.886 19.7656 138.228 20.0391 138.813 20.3516C139.419 20.6641 140.142 21.0254 140.981 21.4355C141.841 21.8262 142.759 22.2754 143.735 22.7832C144.712 23.2715 145.61 23.8184 146.431 24.4238C147.271 25.0098 147.974 25.6543 148.54 26.3574C149.126 27.041 149.448 27.7734 149.507 28.5547C149.565 29.5508 149.556 30.4492 149.478 31.25C149.399 32.0508 149.126 32.7344 148.657 33.3008C148.188 33.8672 147.456 34.3164 146.46 34.6484C145.483 34.9805 144.126 35.1855 142.388 35.2637C140.591 35.3418 139.116 35.2441 137.964 34.9707C136.812 34.6973 135.874 34.3262 135.151 33.8574C134.448 33.3887 133.921 32.8711 133.569 32.3047C133.237 31.7383 132.993 31.2012 132.837 30.6934C132.681 30.166 132.573 29.7168 132.515 29.3457C132.456 28.9551 132.358 28.7207 132.222 28.6426C132.065 28.5449 131.909 28.457 131.753 28.3789C131.616 28.3008 131.47 28.2324 131.313 28.1738C131.157 28.0957 131.001 28.0273 130.845 27.9688L139.37 26.5918C138.882 26.9824 138.501 27.3438 138.228 27.6758C137.974 28.0078 137.778 28.3008 137.642 28.5547C137.485 28.8477 137.378 29.1211 137.319 29.375C137.28 29.6484 137.368 29.9902 137.583 30.4004C137.798 30.8105 138.091 31.2109 138.462 31.6016C138.853 31.9727 139.302 32.2852 139.81 32.5391C140.317 32.793 140.845 32.9004 141.392 32.8613C142.075 32.8027 142.632 32.6367 143.062 32.3633C143.491 32.0703 143.813 31.709 144.028 31.2793C144.263 30.8496 144.399 30.3809 144.438 29.873C144.478 29.3652 144.429 28.8672 144.292 28.3789C144.175 27.8711 143.979 27.4023 143.706 26.9727C143.433 26.5234 143.11 26.1523 142.739 25.8594C142.407 25.625 141.89 25.4004 141.187 25.1855C140.503 24.9707 139.731 24.7363 138.872 24.4824C138.032 24.2285 137.163 23.9355 136.265 23.6035C135.386 23.2715 134.585 22.8613 133.862 22.373C133.159 21.8848 132.593 21.3086 132.163 20.6445C131.753 19.9805 131.597 19.1797 131.694 18.2422C131.772 17.4414 132.026 16.7773 132.456 16.25C132.905 15.7031 133.462 15.2734 134.126 14.9609C134.81 14.6289 135.562 14.3848 136.382 14.2285C137.222 14.0723 138.071 13.9844 138.931 13.9648C139.81 13.9258 140.669 13.9355 141.509 13.9941C142.368 14.0527 143.14 14.1211 143.823 14.1992C144.507 14.2773 145.083 14.3555 145.552 14.4336C146.04 14.4922 146.343 14.5313 146.46 14.5508C146.968 14.5898 147.476 14.5801 147.983 14.5215C148.433 14.4824 148.921 14.3945 149.448 14.2578C149.995 14.1016 150.522 13.8672 151.03 13.5547Z" fill="#FF0000"/>
<path d="M85.4785 59.8203C85.6738 59.5273 85.8301 59.2539 85.9473 59C86.0645 58.7461 86.1621 58.5312 86.2402 58.3555C86.3184 58.1406 86.377 57.9453 86.416 57.7695C86.4355 57.6523 86.4453 57.3105 86.4453 56.7441C86.4453 56.1777 86.4258 55.4648 86.3867 54.6055C86.3672 53.7461 86.3379 52.7793 86.2988 51.7051C86.2793 50.6309 86.2402 49.5371 86.1816 48.4238C86.1426 47.3105 86.0938 46.2266 86.0352 45.1719C85.9961 44.1172 85.957 43.1699 85.918 42.3301C85.8789 41.4707 85.8398 40.7676 85.8008 40.2207C85.7617 39.6738 85.7324 39.3613 85.7129 39.2832C85.6738 39.166 85.6055 39.0488 85.5078 38.9316C85.3125 38.6973 84.9805 38.4727 84.5117 38.2578C85.5078 38.0039 86.2695 37.7988 86.7969 37.6426C87.1094 37.5645 87.3828 37.4863 87.6172 37.4082C87.832 37.3301 88.0469 37.252 88.2617 37.1738C88.4375 37.0957 88.6328 37.0078 88.8477 36.9102C89.0625 36.793 89.2578 36.666 89.4336 36.5293C89.3359 37.0957 89.2578 37.6426 89.1992 38.1699C89.1406 38.6973 89.0918 39.1855 89.0527 39.6348C89.0137 40.1426 88.9941 40.6309 88.9941 41.0996C88.8965 42.0566 88.8379 43.1016 88.8184 44.2344C88.8184 45.3477 88.8281 46.4805 88.8477 47.6328C88.8672 48.7852 88.9062 49.9082 88.9648 51.002C89.0234 52.0957 89.082 53.0918 89.1406 53.9902C89.2188 54.8691 89.2871 55.6211 89.3457 56.2461C89.4238 56.8516 89.4824 57.2422 89.5215 57.418C89.5996 57.7109 89.6777 57.9941 89.7559 58.2676C89.834 58.502 89.9219 58.7461 90.0195 59C90.1172 59.2734 90.2344 59.4883 90.3711 59.6445H87.5293C87.2754 59.6445 87.0312 59.6543 86.7969 59.6738C86.582 59.6934 86.3574 59.7129 86.123 59.7324C85.8887 59.752 85.6738 59.7812 85.4785 59.8203ZM99.2773 45.875C99.7852 45.875 100.312 45.9727 100.859 46.168C101.406 46.3438 101.934 46.5781 102.441 46.8711C102.949 47.1445 103.408 47.4473 103.818 47.7793C104.248 48.0918 104.6 48.3945 104.873 48.6875C105.361 49.2148 105.693 49.9277 105.869 50.8262C106.064 51.7051 106.104 52.6133 105.986 53.5508C105.869 54.4688 105.596 55.3379 105.166 56.1582C104.736 56.9785 104.141 57.584 103.379 57.9746C102.832 58.248 102.295 58.4629 101.768 58.6191C101.24 58.7754 100.732 58.8926 100.244 58.9707C99.7559 59.0488 99.2969 59.0879 98.8672 59.0879C98.4375 59.0879 98.0664 59.0781 97.7539 59.0586C97.168 59.0195 96.5527 58.8145 95.9082 58.4434C95.2832 58.0723 94.6875 57.6133 94.1211 57.0664C93.5742 56.5195 93.1055 55.9238 92.7148 55.2793C92.3242 54.6152 92.0898 53.9902 92.0117 53.4043C91.8945 52.6035 91.875 51.7637 91.9531 50.8848C92.0312 50.0059 92.3145 49.1953 92.8027 48.4531C93.3105 47.7109 94.0723 47.0957 95.0879 46.6074C96.123 46.1191 97.5195 45.875 99.2773 45.875ZM98.3105 57.2422C98.5254 57.2812 98.8184 57.2324 99.1895 57.0957C99.5605 56.9395 99.9219 56.6953 100.273 56.3633C100.645 56.0312 100.967 55.6113 101.24 55.1035C101.533 54.5762 101.709 53.9414 101.768 53.1992C101.826 52.4766 101.826 51.8125 101.768 51.207C101.729 50.6016 101.641 50.0742 101.504 49.625C101.367 49.1562 101.211 48.7754 101.035 48.4824C100.859 48.1895 100.674 47.9844 100.479 47.8672C100.146 47.6914 99.7461 47.5547 99.2773 47.457C98.8086 47.3398 98.4082 47.3594 98.0762 47.5156C97.9199 47.5938 97.7246 47.7598 97.4902 48.0137C97.2559 48.2676 97.0215 48.5898 96.7871 48.9805C96.5527 49.3516 96.3379 49.7812 96.1426 50.2695C95.9668 50.7578 95.8398 51.2656 95.7617 51.793C95.6836 52.3203 95.6641 52.8867 95.7031 53.4922C95.7617 54.0977 95.8887 54.6738 96.084 55.2207C96.2793 55.748 96.5527 56.207 96.9043 56.5977C97.2754 56.9688 97.7441 57.1836 98.3105 57.2422ZM107.1 37.877C107.314 37.9746 107.568 38.043 107.861 38.082C108.174 38.1211 108.467 38.1406 108.74 38.1406C109.072 38.1406 109.414 38.1309 109.766 38.1113C110.117 38.0918 110.547 38.0527 111.055 37.9941C111.465 37.9551 111.973 37.9062 112.578 37.8477C113.184 37.7891 113.857 37.7109 114.6 37.6133C114.326 37.75 114.092 37.8965 113.896 38.0527C113.701 38.209 113.535 38.3652 113.398 38.5215C113.242 38.6973 113.115 38.873 113.018 39.0488C112.881 39.2832 112.695 39.6934 112.461 40.2793C112.246 40.8457 112.021 41.4805 111.787 42.1836C111.572 42.8867 111.377 43.5996 111.201 44.3223C111.045 45.0449 110.957 45.6602 110.938 46.168C110.918 46.5977 110.898 47.0859 110.879 47.6328C110.859 48.1016 110.84 48.6777 110.82 49.3613C110.801 50.0449 110.781 50.8262 110.762 51.7051C112.168 50.6895 113.252 49.8789 114.014 49.2734C114.775 48.6484 115.332 48.1699 115.684 47.8379C116.094 47.4668 116.338 47.2031 116.416 47.0469C116.396 46.9297 116.348 46.8027 116.27 46.666C116.172 46.5488 116.035 46.4121 115.859 46.2559C115.684 46.0996 115.42 45.9238 115.068 45.7285C115.576 45.7871 116.016 45.8262 116.387 45.8457C116.777 45.8652 117.109 45.8848 117.383 45.9043C117.695 45.9238 117.969 45.9238 118.203 45.9043C118.457 45.9043 118.77 45.8945 119.141 45.875C119.785 45.8555 120.781 45.8262 122.129 45.7871C120.82 46.4707 119.785 47.0566 119.023 47.5449C118.594 47.8184 118.213 48.0723 117.881 48.3066C117.549 48.5605 117.207 48.8242 116.855 49.0977C116.543 49.332 116.182 49.6055 115.771 49.918C115.381 50.2305 114.99 50.5625 114.6 50.9141C115.283 52.0273 115.879 52.9453 116.387 53.668C116.914 54.3906 117.354 54.9766 117.705 55.4258C118.115 55.9531 118.477 56.373 118.789 56.6855C119.102 56.9785 119.512 57.3105 120.02 57.6816C120.449 58.0137 121.006 58.4043 121.689 58.8535C122.393 59.2832 123.242 59.7812 124.238 60.3477C123.73 60.25 123.242 60.1816 122.773 60.1426C122.305 60.123 121.904 60.123 121.572 60.1426C121.162 60.1621 120.791 60.2012 120.459 60.2598C120.107 60.3379 119.717 60.4355 119.287 60.5527C118.916 60.6504 118.477 60.7773 117.969 60.9336C117.48 61.1094 116.943 61.334 116.357 61.6074C116.729 61.334 117.002 61.0703 117.178 60.8164C117.373 60.582 117.51 60.3867 117.588 60.2305C117.666 60.0352 117.695 59.8691 117.676 59.7324C117.578 59.5371 117.354 59.1367 117.002 58.5312C116.67 58.0234 116.182 57.2812 115.537 56.3047C114.893 55.3281 113.975 54 112.783 52.3203C112.725 52.3398 112.627 52.3984 112.49 52.4961C112.373 52.5938 112.197 52.7305 111.963 52.9062C111.729 53.0625 111.416 53.2969 111.025 53.6094L111.816 58.7363C111.641 58.8145 111.445 58.8828 111.23 58.9414C111.035 59 110.85 59.0488 110.674 59.0879C110.459 59.1465 110.244 59.1855 110.029 59.2051C109.814 59.2246 109.561 59.2637 109.268 59.3223C109.014 59.3613 108.711 59.4102 108.359 59.4688C108.008 59.5469 107.607 59.6348 107.158 59.7324C107.412 59.5566 107.617 59.3516 107.773 59.1172C107.93 58.9023 108.057 58.6973 108.154 58.502C108.252 58.2871 108.34 58.0625 108.418 57.8281C108.457 57.6328 108.496 57.125 108.535 56.3047C108.594 55.4844 108.643 54.5078 108.682 53.375C108.721 52.2227 108.75 50.9922 108.77 49.6836C108.809 48.375 108.828 47.1445 108.828 45.9922C108.828 44.8203 108.818 43.8047 108.799 42.9453C108.779 42.0664 108.74 41.5 108.682 41.2461C108.584 40.9336 108.467 40.6016 108.33 40.25C108.213 39.9375 108.047 39.5859 107.832 39.1953C107.637 38.7852 107.393 38.3457 107.1 37.877Z" fill="#FF0000"/>
</svg>
